<?xml version="1.0" encoding="UTF-8"?>
<svg id="Layer_2" data-name="Layer 2" xmlns="http://www.w3.org/2000/svg" viewBox="0 0 425.44 92.31">
  <defs>
    <style>
      .cls-1 {
        fill: #fff;
      }

      .cls-2 {
        opacity: .25;
      }

      .cls-2, .cls-3 {
        fill: #5a81fa;
      }
    </style>
  </defs>
  <g id="Layer_1-2" data-name="Layer 1">
    <g>
      <path class="cls-1" d="M147.99,23.84c-3.68-2.27-7.85-3.41-12.52-3.41s-8.86,1.14-12.76,3.41c-3.9,2.27-6.99,5.36-9.26,9.26-2.27,3.9-3.41,8.12-3.41,12.67s1.14,8.76,3.41,12.67c2.27,3.9,5.36,7.01,9.26,9.31,3.9,2.3,8.16,3.46,12.76,3.46s8.8-1.02,12.57-3.07c3.77-2.05,6.78-4.89,9.02-8.54l-9.02-4.7c-3.07,4.1-7.23,6.14-12.47,6.14-3.33,0-6.24-.99-8.73-2.97-2.5-1.98-4.1-4.48-4.8-7.48h37.42c.19-1.47.29-3.07.29-4.8,0-4.61-1.04-8.84-3.12-12.71-2.08-3.87-4.96-6.94-8.64-9.21ZM122.42,40.88c.77-2.88,2.37-5.26,4.8-7.15,2.43-1.89,5.21-2.83,8.35-2.83s5.92.94,8.35,2.83c2.43,1.89,4.03,4.27,4.8,7.15h-26.29Z"/>
      <polygon class="cls-1" points="165.99 32.91 190.84 32.91 166.18 58.44 166.18 70.24 207.53 70.24 207.53 58.82 183.35 58.82 207.53 33.2 207.53 21.49 165.99 21.49 165.99 32.91"/>
      <path class="cls-1" d="M229.79,57.91c-.51-.48-.77-1.07-.77-1.78V0h-12.38v55.37c0,2.75.67,5.26,2.02,7.53,1.34,2.27,3.17,4.06,5.47,5.37,2.3,1.31,4.8,1.97,7.48,1.97h1.53v-11.61h-1.53c-.7,0-1.31-.24-1.82-.72Z"/>
      <path class="cls-1" d="M276.96,23.84c-3.68-2.27-7.85-3.41-12.52-3.41s-8.86,1.14-12.76,3.41c-3.9,2.27-6.99,5.36-9.26,9.26-2.27,3.9-3.41,8.12-3.41,12.67s1.14,8.76,3.41,12.67c2.27,3.9,5.36,7.01,9.26,9.31,3.9,2.3,8.16,3.46,12.76,3.46s8.8-1.02,12.57-3.07c3.77-2.05,6.78-4.89,9.02-8.54l-9.02-4.7c-3.07,4.1-7.23,6.14-12.47,6.14-3.33,0-6.24-.99-8.73-2.97-2.5-1.98-4.1-4.48-4.8-7.48h37.42c.19-1.47.29-3.07.29-4.8,0-4.61-1.04-8.84-3.12-12.71-2.08-3.87-4.96-6.94-8.64-9.21ZM251.38,40.88c.77-2.88,2.37-5.26,4.8-7.15,2.43-1.89,5.21-2.83,8.35-2.83s5.92.94,8.35,2.83c2.43,1.89,4.03,4.27,4.8,7.15h-26.29Z"/>
      <path class="cls-1" d="M337.55,29.28c-1.39-2.13-3.08-3.97-5.13-5.44-3.17-2.27-6.96-3.41-11.37-3.41s-8.86,1.15-12.76,3.46c-3.9,2.3-6.99,5.39-9.26,9.26-2.27,3.87-3.41,8.08-3.41,12.62s1.14,8.86,3.41,12.76c2.27,3.9,5.36,6.99,9.26,9.26,3.9,2.27,8.16,3.41,12.76,3.41s8.2-1.12,11.37-3.36c1.91-1.35,3.51-3.03,4.85-4.97v5.35c0,2.24-.56,4.3-1.68,6.19-1.12,1.89-2.62,3.39-4.51,4.51-1.89,1.12-3.92,1.68-6.09,1.68h-19.29v11.71h18.42c4.28,0,8.25-1.09,11.9-3.26,3.65-2.18,6.54-5.12,8.68-8.83,2.14-3.71,3.21-7.74,3.21-12.09V21.49h-10.36v7.79ZM333.62,52.78c-1.22,2.11-2.86,3.77-4.94,4.99-2.08,1.22-4.37,1.82-6.86,1.82s-4.8-.61-6.91-1.82c-2.11-1.21-3.77-2.88-4.99-4.99-1.22-2.11-1.82-4.41-1.82-6.91s.61-4.8,1.82-6.91c1.22-2.11,2.88-3.77,4.99-4.99,2.11-1.22,4.41-1.82,6.91-1.82s4.78.61,6.86,1.82c2.08,1.22,3.73,2.88,4.94,4.99,1.21,2.11,1.82,4.41,1.82,6.91s-.61,4.8-1.82,6.91Z"/>
      <rect class="cls-1" x="357.03" y="5.37" width="13.05" height="10.08"/>
      <rect class="cls-1" x="357.32" y="21.49" width="12.47" height="48.75"/>
      <path class="cls-1" d="M422.76,31.62c-1.79-3.42-4.27-6.14-7.44-8.15-3.17-2.02-6.7-3.02-10.6-3.02s-7.29,1.09-10.17,3.26c-1.77,1.34-3.25,2.95-4.51,4.78v-6.98h-10.36v48.75h12.47v-27.06c0-2.81,1.02-5.26,3.07-7.34,2.05-2.08,4.48-3.12,7.29-3.12s5.34,1.02,7.39,3.07c2.05,2.05,3.07,4.51,3.07,7.39v27.06h12.47v-27.44c0-4.03-.9-7.76-2.69-11.18Z"/>
    </g>
    <g>
      <rect class="cls-2" x="0" y="35.18" width="89.38" height="21.06" rx="10.53" ry="10.53"/>
      <rect class="cls-3" x="0" y=".96" width="89.03" height="21.06" rx="10.53" ry="10.53"/>
      <rect class="cls-3" x="0" y="35.18" width="55.68" height="21.06" rx="10.53" ry="10.53"/>
      <rect class="cls-3" x="0" y="69.4" width="89.03" height="21.06" rx="10.53" ry="10.53"/>
    </g>
  </g>
</svg>